<?xml version="1.0" encoding="UTF-8"?>
<svg xmlns="http://www.w3.org/2000/svg" xmlns:xlink="http://www.w3.org/1999/xlink" viewBox="0 0 816.73 1898.94">
  <defs>
    <style>
      .cls-1 {
        fill: #3fdacc;
      }

      .cls-2 {
        fill: #fef5d9;
      }

      .cls-3 {
        fill: #fefcfa;
      }

      .cls-4 {
        fill: #3dd095;
      }

      .cls-5 {
        fill: #e45826;
      }

      .cls-6 {
        fill: #62161f;
      }

      .cls-7 {
        fill: #d57d41;
      }

      .cls-8 {
        fill: #f34e59;
      }

      .cls-9 {
        fill: url(#linear-gradient);
      }

      .cls-10 {
        fill: #701926;
      }

      .cls-11 {
        fill: #fcfbde;
      }

      .cls-12 {
        fill: #4e0002;
      }

      .cls-13 {
        fill: #f8792b;
      }

      .cls-14 {
        fill: #fef5d8;
      }

      .cls-15 {
        fill: #e8dabe;
      }

      .cls-16 {
        fill: #39b0bd;
      }

      .cls-17 {
        fill: #f28725;
      }

      .cls-18 {
        fill: #4b0001;
      }

      .cls-19 {
        fill: #dd3441;
      }

      .cls-20 {
        fill: #490000;
      }

      .cls-21 {
        fill: #3aaebc;
      }

      .cls-22 {
        fill: #e7d9bf;
      }

      .cls-23 {
        fill: #1eb585;
      }

      .cls-24 {
        fill: #490001;
      }

      .cls-25 {
        fill: #bb6334;
      }

      .cls-26 {
        fill: #fbb138;
      }

      .cls-27 {
        fill: #3dd9cd;
      }

      .cls-28 {
        fill: #d67f42;
      }

      .cls-29 {
        fill: #d2b3a0;
      }

      .cls-30 {
        fill: #fefcf9;
      }
    </style>
    <linearGradient id="linear-gradient" x1="444.83" y1="270.62" x2="456.44" y2="784.2" gradientUnits="userSpaceOnUse">
      <stop offset="0" stop-color="#fff"/>
      <stop offset=".06" stop-color="#f2f8ff"/>
      <stop offset=".24" stop-color="#d0e5ff"/>
      <stop offset=".42" stop-color="#b4d6ff"/>
      <stop offset=".61" stop-color="#a1ccff"/>
      <stop offset=".8" stop-color="#95c6ff"/>
      <stop offset="1" stop-color="#92c4ff"/>
    </linearGradient>
  </defs>
  <g id="Layer_1" data-name="Layer 1">
    <rect class="cls-9" x="98.22" width="705.63" height="1090.08" rx="62.02" ry="62.02"/>
    <text/>
  </g>
  <g id="Layer_2" data-name="Layer 2">
    <g>
      <path class="cls-10" d="M339.01,706.64c-10.32-20.84-9.4-58.27-7.17-81.17l-39.02-107.97c-45.09-39.32-76.55-89.43-97.63-145.18l-128.46-.42c-38.32-.26-72.41-25.48-65.95-67.05,4.17-26.79,29.35-44.09,54.04-49.88,3.61-41.57,47.66-65.2,85.34-50.02,9.83-23.7,29.94-38.2,53.98-45.47,2.06-.62,7.79-1.01,8.77-1.71.49-.35,4.59-8.84,5.81-10.68,22.48-34.1,51.48-60.92,88.97-77.89,111.55-50.51,294.74-31.59,354.87,88.44,23.09,46.1,28.4,98.41,22.12,149.25,25.24.51,47.15,12.48,61.16,33.26,5.97,8.85,8.65,17.52,12.75,27.22,6.65,1.4,13.35,1.46,20,2.98,62.9,14.42,63.74,97.04,4.99,119.42-24.22,5.45-49.73,7.31-76.52,5.58-37.84-1.2-75.27-1.4-112.29-.58.26,1.92-2.13,3.2-3.54,1.17-2.61-3.75,5.52-11.46,10.01-11.25.49-2.5,7.93-10.09,10.61-10.56.84-.15,1.54.79,1.9,1.66,47.6-.39,95.22-.73,142.86-1l.41-2.15c30.82-2.72,55.85-26.53,43.67-58.97l.88-2.84-2.83-1.11c-5.11-10.06-14.29-15.87-25.28-17.41-10.48-.48-20.22-2.55-29.2-6.2-6.3-7.45-10.72-16.49-13.25-27.11-6.72-15.01-19.35-24.44-35.38-27.61-.29-1.14-.92-1.99-1.95-2.5-1.91,2.64-11.37.57-12.99-2-1.59,2.56-2.62,6.01-3.09,10.36-1.81,8.84-5.55,11.02-6.31.31-5.46-4.18-4.75-7.75,2.13-10.71.34-5.42-2.49-4.01-8.49,4.22-3.2,2.08-4.61.36-4.22-5.18l-1.63-1.95c3.08-13.87,5.39-28.06,6.36-42.21l1.26-.82c-.12-2.02-.73-3.89-1.78-5.63,1.23-40.41-6.06-82.15-26.73-117.29-26.94-45.78-78.98-72.65-127.42-83.65,96.57,63.47,106.11,185.02,88.89,289.68-.14.85-.61,1.65-1.11,2.48s-1.12,1.6-1.77,2.35c-1.3-1.87-1.78-.57-1.45,3.92-3.52,1.49-7.59,3.59-5.74,7.89-1.75,5.02-6.63,14.38-12.76,13.22.3,4.14-1.78,8.82-6.28,5.86,2.19-7.22,3.61-14.52,4.25-21.89-.34-.87-.65-1.74-.83-2.64s-.3-1.71-.18-2.52c7.56-51.48,13.76-95.64,4.32-147.87-8.07-44.65-23.33-75.73-53.63-109.3-3.43-3.8-29.78-25.99-33.22-26.19-.77-.04-12.83,5.96-13.86,6.6,26.82,52.63,36.14,115.13,38.7,174.44,2.97,68.78-3.33,141.91-18.89,208.9-.23.98-.77,1.9-1.35,2.84s-1.27,1.81-2,2.66c-.65,5.33-2.73,7.53-6.23,6.58-5.23,8.25-19.12,16.96-12.76-.29v-3.29c-.29-2.92-.51-5.9.04-8.81,8.56-45.11,15.79-86.12,17.85-132.32,3.68-82.51-5-173.43-38.01-246.75-12.1.75-23.83.48-35.19-.79-11,4.65-25.28,68.27-27.73,81.14-5.76,30.26-11.17,61.74-11.67,91.8,6.83,18.45,9.43,34.62,1.89,53.79-2.46,11.34-1.43,23.36-.35,34.96,4.01,43.32,11.32,84.21,20.09,127.29.58,2.86.4,5.8.15,8.69.47,4.4,1.16,8.85,2.08,13.33-6.25.94-12.6.16-19.06-2.33-1.77-2.33-3.22-4.85-4.2-7.61-7.96-22.39-12.23-54.86-15.17-78.86-1.91-15.58-3.75-30.87-2.62-46.44-2.42-4.84-3.44-10.29-3.06-16.36l-1.07-.97c-16.38,12.47-36.95,15.82-56.82,16.9.66,5.17,1.83,10.23,3.51,15.2l-1.5,2.21c1.52,2.19,3,4.47,3.79,7.03,9.18,29.69,18.21,58.73,31.67,86.86l.5,4.05c4.58,2.57,7.53,8.74,6.99,13.99l.07,2.28c-6.59,4.97-7.13,21.99,2.77,23.09,3.31,6.62,8.5,12.19,15.57,16.7,3.48,2.53,4.05,4.8,1.72,6.82-8.81-4.68-17.52-8.98-26.12-12.91-2.44.89-5.13.09-8.05-2.38,7.03,20.49,14.24,40.84,21.62,61.05l-.58,2.29.7,4.77c2.39,5.43,3.65,11.14,3.78,17.15,4.51,4.83,4.68,8.86.52,12.07,1.66.63,1.58,1.07-.19,1.33-.72,6.41-.47,13.86-.19,18.45.87,14.54,1.99,29.4,6.06,43.46-.69,3.96-4.72,3.94-8.01,3.22.98,4.45-4.1,7-7.65,5.5Z"/>
      <path class="cls-6" d="M650.71,325.89c1.72.4-.05,5.02,2.48,3.99,1.84-.74,8.17-13.6,12.03-5.99,2.87,5.67-6.49,6.97-6.5,8.49,4.88,3,5.53,5.73,4.99,11.49,3.99-3.9,3.68-11.8,5.46-17.03l1.01-.82c.25,0,.43.86.51.86.25,1.25.45,2.5.51,3.76s.11,2.48-.17,3.61c-12.84,52.14-32.79,91.46-61.86,136.07-1.18,1.82-3.46,3.69-5.42,4.46.87.28.86.62,0,1-4.98.68-4.77,3.15-7.34,5.71-1.03,1.02-4.61-.34-2.64,5.28-5.06-.67-10.75,3.05-11.01,8.49.15,1.3,1.44-.47,2.01-.49,54.26.04,108.54.04,162.84,0-1.04,1.66-3.79,1-5.48,1.02-51.93.64-103.91-.54-155.84,0l-23.45,19.52-41.51,111.26c3.64,15.97,1.32,35.98-.51,52.58-1.16,10.52-2.12,19.27-7.13,28.84-16.08,30.74-53.43,30.32-83.78,29.62v38.98c.93,5.81-.08,7.75-3,5.81l-.15-38.08c-4.31.48-8.57.05-12.76-1.29l.92,170.71c.08,2.41-1.29,3.43-3.68,2.86.51-19.2.41-38.23-.31-57.08.07-40.63-.05-81.3,0-121.93-28.6.09-57.96-2.76-71.93-30.97,1-2,4.59-1.64,5.6-2.96.88-1.16-.99-3.47-.61-4.03,1.44-2.12,8.29,2.37,9.04-2.54.46-2.99-3.5-13.72-3.03-17.97-.54-5.87.21-17.84-1.02-22.8-.19-.77-1.95-.64-2.03-1.31-.38-2.91,1.47-16.76,2.05-20.36l1.82,1.28c-.85,21.04,1.55,41.45,7.21,61.25l-1.04,2.42,2.75.8c6.34,11.03,16.69,12.69,28.24,13.66,17.43,1.46,38.16,2.34,55.76,1.97,22.45-.47,48.7-1.81,54.04-27.3,1.55-7.43,6.7-48.97,2.97-53.65-.94-1.18-2.35-1.48-3.82-1.5-36.37.14-72.82.13-109.23-.08-2.78-.02-5.57-.3-8.36-.62s-5.59-.76-8.37-1.25c-3.23,1.2-6.72.78-9.99,0-.39,2.07-2.34,1.78-3,0-.01.77-.11,1.72-.74,2.04-.79.4-6.91.99-8.25.96.37-2.33,1.76-5.22,1.76-5.52,0-.9-2.6-2.22-3.22-3.51-2.76-5.76-1.26-9.38-1.56-14.33-.2-3.26-4.21-7.6-1.97-10.61l2.51,1.22c.56,4.15,1.89,7.41,3.98,9.78.21-.78.53-1.91,1.16-2,3.36-.48,19.69-.55,22.86,0l1.45,2-2.13-.54c-3.62-17.9-6.74-35.53-9.35-52.89-10.16-3.62-21.53-8.44-30.53-14.48-.64-.43-1.15-1.06-1.64-1.73-.52-.71-.92-1.5-1.3-2.32.65-2.12,2.94.04,3.91.59,7.23,4.1,14.56,7.84,22.06,11.4,2.05-2.02-14.13-12.96-15.55-14.91s-1.45-5.1-2.82-6.17c-1.66-1.3-3.95-.2-5.44-2.55-4.18-6.59-4.21-20.18,3.84-24.33l2.35.13c8.49,20.84,22.34,30.59,43.92,35.16-3.12-7.86-6.2-15.71-8.97-23.7-.22-.64-.12-1.4,0-2.2s.37-1.6.66-2.39c-.92-.77-1.07-2.32,0-3,.29-1.89-1.47-3.53,1.73-2.24,5.45,2.18,10.08,3.99,16.25,3.24,1.43-1.43-3.82-9.84-1-11.99,3.88,2.76,5.8,10.61,4,14.99l3.43,4.13,9.57,25.5c-.76,1.56-.15,1.91,1.84,1.06,10.9.89,21.69.74,32.36-.45,5.98-10.88,10.78-22.39,14.4-34.52l2.33-.71c-1.28-6.21.74-14.34,5-18.99,2.27,2.91-.82,7.11-1.02,10.49-.21,3.72,7.57-2.79,9.03-3.97,1.63-1.32,2.67-3.98,3.69-4.61,3.2-1.98,5.54,3.79,6.13-5.56l1.13.65c2.37-.04,1.47,1.92,0,3l.43,3.71c-3.42,15.58-8.07,30.87-13.93,45.87,21.39-5.18,29.07-9.79,40.3-27.84,16.81-27,29.71-55.81,40.02-86.49l2.1-2.22-.74-4.29c3.72-11.63,7.35-23.28,9.95-35.22l2.77-3.46c2.07,5.23-1.39,12.66-2.55,17.94-.3,1.38-1.57,3.41,1.04,3.04,2.24-1.35,1.01-4.55,1.95-6.05,1-1.6,4.03-.41,5.35-1.15.55-.31,6.9-9.87,7.01-10.49.23-1.41-.94-2.83-.34-4.26.76-1.81,5.07-6.51,7.53-5.02.95-2.82-2.34-1.79-2.93-3.59-1-3.05,1.78-5.97,4.93-5.39v5.99c.36.88.68,1.77.86,2.69s.35,1.79.19,2.59c-3.33,17.08-7.31,33.97-12.56,50.58-.25.78-.81,1.47-1.42,2.18s-1.32,1.33-2.06,1.93c.25.83.46,1.66.53,2.5s.13,1.63-.13,2.28c-10.38,25.64-21.92,49.12-34.9,72.34,33.94-22.78,59.69-55.52,78.85-91.34,15.21-28.43,22.66-53.72,31.53-84.21.24-.82.7-1.58,1.21-2.33s1.17-1.49,1.84-2.18Z"/>
      <path d="M410.94,859.54c1.65,1.04,1,3.79,1.02,5.48.17,15.98-.49,32.04-.02,48,.03.86-.41,3.6,1,1.98l-1-174.38c5.91.9,10.93,3.41,16.97,1v41.47s1.01-6.49,1.01-6.49l1.49,6.98c.96-.83,2.26-1.27,3.48-1.52,22.3-4.53,44.43-11.15,66.78-15.15,13.77-2.46,33.39-7.87,35.15,11.68.44,50.29.44,100.59,0,150.9-3.19,37.96-61.69,58.23-84.15,25.71-22.42-32.45,20.88-73.03,54.4-60.42l9.76,4.72v-74.95l-85.92,18.99v101.93c-5.2,55.82-98.69,53.02-92.8,1.61,3.35-29.25,48.44-49.2,72.81-31.59.04-18.64-.02-37.32.01-55.96Z"/>
      <path class="cls-12" d="M773.59,489.78c-9.44,3.6-15.94,4.6-25.97,5-53.77,2.14-108.94-1.62-162.84,0,1.04-1.66,3.79-1,5.48-1.02,51.81-.64,110.14,3.8,160.9.06,6.31-.47,11.96-2.26,17.92-4.06,1.32-.4,3.63-1.9,4.52.03Z"/>
      <path class="cls-18" d="M536.82,929.49v-150.9c-3.03,48.84,4.05,102.64,0,150.9Z"/>
      <path class="cls-8" d="M391.96,496.78c-9.65-36.71-16.04-76.61-19.97-114.44-1.53-14.72-4.37-35.7-3.05-50,1-10.78,6.45-20.45,6.08-32.98-.3-10.04-7.11-23.16-7.13-29.93-.03-15.47,3.95-39.9,6.23-55.83,2.61-18.24,6.06-36.71,10.33-54.62,3.85-16.15,11.8-47.31,22.03-59.9,3.04-3.75,5.08-1.06,8.91-1,9.93.17,19.88-.22,29.81-.06,5.36,1.3,19.38,50.06,21.4,57.76,27.22,103.55,23.69,228.08-1.71,332-1.54,6.3-3.08,12.8-5,18.99-20.03,6.23-41.77,7.4-62.19,6.34l-1.75-1.35c-1.6-5.19-2.64-9.84-4-14.99Z"/>
      <path class="cls-2" d="M23.32,329.88c-7.77-17.49.57-37.67,16.68-46.77,8.12-4.59,16.89-5.43,24.79-9.18,12.71-6.04,8.75-18.78,12.99-29.98,6.7-17.7,33.26-26.36,50.44-21.5,7.65,2.16,13.64,9.56,21.7,4.72,3.47-2.08,8.13-14.68,10.85-19.13,23.87-39.15,88.37-43.26,112.84-3.11,8.61,14.12,8.4,24.67,13.15,38.81s20.18,9.92,32.27,13.19c.89,3.35-2.01,3.98-8.71,1.88-1.44,26.87-23.14,43.39-46.28,52.76-40.48,16.4-84.85,23.13-126.82,9.97l-6.99-.78c-34.39,11.48-71.16,12.82-106.91,9.13Z"/>
      <path class="cls-26" d="M564.79,377.85c-3.22,15.85-7.26,28.03-11.99,42.97l-1.27-.61c-14.07,27.5-41.42,52.73-66.75,69.65-.95-.23-1.19-1.16-.91-2.08.21-.85-.21-2.14,0-3,26.25-109.04,33.64-273.34-12.81-377.43-1.05-2.35-7.22-12.1-6.17-13.31,4.27,1.01,13.96-6.82,16.48-6.65,2.9.19,23.51,16.49,27.01,19.61,74.6,66.55,74.91,179.69,56.42,270.85Z"/>
      <path class="cls-4" d="M656.7,280.92c-1.48.08-2.09,2.38-1.84,6.9-7.73,25.91-17.99,52.18-30,76.37-6.62,13.34-34.77,59.08-46.61,64.59-2.51,1.17-7.76,3.6-6.47.04,6.41-18.63,11.46-40.55,14.99-59.96,14.01-77.05,12.89-173.54-33.15-240.16-14.88-21.52-34.41-39.22-55.74-54.15.83-.73,1.53-2.05,2.68-2.33,2.76-.67,27.46,7.85,32.04,9.56,45.63,17.01,84.3,44.66,104.99,89.85,15.9,34.74,20.93,71.17,19.12,109.29Z"/>
      <path class="cls-15" d="M319.03,256.93c46.06,5.69,46.26,82.96-3,91.94l-4.26.5-256.48.49c-12.34-1.2-26.75-8.23-31.97-19.99.93-1.84,1.41-1.99,3.43-2.09,6.55-.32,16.16,1.9,23,2.14,17.95.62,42.11-1.62,59.69-5.33,6.01-1.27,14.25-5.13,19.25-5.72,8.18-.97,20.32,4.47,29.27,5.75,32.55,4.64,69.47-.06,99.81-12.55,24.83-10.22,50.2-24.64,50.27-55.15,2.99-.62,5.83.89,8.55,1.05,2.32.14,2.31-1.06,2.44-1.05Z"/>
      <path class="cls-14" d="M683.68,328.88c18.91,4.18,29.78,10.87,38.82,28.62,5.84,11.47,5.23,27.36,20.07,29.89,21,3.58,37.79.85,49.01,23.43-17.62,36.81-66.3,44.67-103.51,39.2-6.27-.92-37.66-8.5-42.18-13.83-1.58-1.87-2.6-3.16-.73-5.37,20.06-25.12,44.29-67.2,36.92-100.19-.22-.96.57-1.59,1.61-1.76Z"/>
      <path class="cls-22" d="M683.68,328.88l-.56.96c.74-.01,1.53-.26,1.63.59,4.23,36.59-16.5,75.72-38.99,102.78.41,2.44,17.97,8.84,21.17,9.86,39.03,12.5,93.96,9.19,119.9-26.49,1.76-2.41,1.3-5.21,4.74-5.75,11.32,22.78-.75,50.18-24.28,59.15l-20.67,4.8c-47.63.78-95.25.78-142.86,0-1.55-1.04,2.61-3.96,3.82-5.67,29.96-42.29,51.86-91.57,63.11-142.24,5.88-.07,7.79.85,12.99,2Z"/>
      <path class="cls-1" d="M387.96,92.05c-26,48.07-31.45,104.21-36.97,157.88-12.35-11.08-28.72-14.37-44.82-16.12-2.75-14.33-9.43-27.36-15.71-40.33,10.25-35.46,30.45-68.14,59.64-90.85,3.85-2.99,20.02-14.82,23.63-15.42,4.81-.8,9.62,3.99,14.23,4.84Z"/>
      <path class="cls-27" d="M374.98,507.77c.23.8-.23,2.2,0,3-.7,3.55-2.2,2.19-4.53-4.07l-10.47-3.21c-10.44-4.21-20.47-9.02-29.96-13.71-15.41-31.2-27.94-63.98-35.96-97.94-.27-2.73,1.32-2.76,2.75-.53,4.63.95,51.13-.88,53.66-4.97-.7-3.54-1.13-7.29.02-10.81l2.5-.68c3.37,44.9,9.49,89.62,21.98,132.91Z"/>
      <path class="cls-23" d="M656.7,280.92c1.22,10.76-3.59,33.71-5.99,44.97-14.99,70.11-56.27,148.07-118.87,185.88l23.83-44.61c5.02-12.77,11.67-25.38,16.13-38.33.88,2.43,1.75-1.61,2.14-1.81s1.71,1.01,2.84.35c12.64-7.37,40.41-51.51,47.16-65.8,9.13-19.3,24.94-56.33,29.52-76.4.74-3.26-1.04-7.81,2.25-9.24-.89,1.92.91,4.11,1.01,5Z"/>
      <path class="cls-13" d="M356.99,76.03c-.32.47-8.25,4.45-9.89,5.61-33.91,23.85-57.4,55.3-71.54,94.35-14.23-11-30.85-19.64-49.43-18.99-.69-.6,5.34-9.16,6.17-10.3,25.68-35.39,62.41-57.56,103.95-69.91,3.36-1,14.86-4.79,17.31-4.66,1.66.09,4.31,2.63,3.43,3.91Z"/>
      <path class="cls-13" d="M225.12,390.84l2.71-1.31,11.15,2.19c12.2,2.36,23.9,2.73,35.09,1.11,8.79,41.67,26.8,83.13,46.95,120.43.22.67-.95.73-1.48.49-2.21-1.02-11.91-9.26-14.51-11.47-34.64-29.43-61.76-70.17-79.91-111.44Z"/>
      <path class="cls-3" d="M331.02,539.75c11.14,6.64,22.52,12.74,34.73,17.23l10.22,54.72h-25.48c-.28,0-1.02,1.06-1.88.9l-1.11-.87c-1.48-3.55-2.2-7.44-3.5-11.02-7.46-20.58-18.64-45.87-23.96-66.48-.14-.54-.29-1.63.48-1.47,3.15,2.86,6.88,4.84,10.49,6.99Z"/>
      <path class="cls-21" d="M353,374.85c-2.04,3.38-1.1,8.88-.26,12.54-.43,2.28-22.69,5.21-26.23,5.43-8.77.54-20.17.64-28.99.5-1.46-.02-2.71-.28-2.51-2.09l-.96.61c-1.54-6.5-4.4-13.09-4-19.99,22.09.46,44.38-4.39,61.45-18.98.64,7.29.94,14.67,1.49,21.98Z"/>
      <path class="cls-16" d="M330.02,489.78c4.67-3.05,6.96,1.42,10.27,3.21,9.53,5.16,20.29,8.81,31.03,11.94,2.17,1.24,2.3,4.13,2.62,6.39l1.04-.55c2.92,9.92,7.29,19.85,10.93,29.55.25,1.58.24,1.61-1.3,1.3-7.63-1.53-26.47-8.77-32.1-13.87-5.13-4.65-11.94-17.57-15.49-23.98-2.54-4.57-4.68-9.31-6.99-13.99Z"/>
      <path class="cls-5" d="M225.12,390.84c-2.75-6.25-6.59-12.14-7.99-18.99h53.95c-.17,7.06,1.55,14.11,3,20.99-.82,4.55-7.57,3.22-11.53,3.04-7.14-.33-16.6-1.33-23.81-2.17-4.43-.51-9.34-1.59-13.61-2.87Z"/>
      <path class="cls-28" d="M474.88,67.07c-1.61,3.12-5.2,4.85-8.31,6.16-18.78,7.93-60.42,8.11-78.27-2.01-1.54-.87-5.3-2.7-5.34-4.65,30.37-5.07,61.51-4.09,91.92.5Z"/>
      <path class="cls-20" d="M312.04,349.87c1.1.03,3.26-.67,2.99.99l-8.44,1.06-250.8-.04c-1.72-1.59,2.96-.99,3.49-1,83.61-.42,166.53-.75,248.76-1,1.17-.81,2.9-.77,4,0Z"/>
      <path class="cls-11" d="M316.04,348.87c-1.21.22-3.29-.64-4,1-1.31-.03-2.69-.08-4,0-82.98.79-165.9.79-248.76,0-1.32-.09-2.69.13-4,0l260.75-1Z"/>
      <path class="cls-29" d="M308.04,349.87c-.33.02-2.15,1.66-3.38,1.07-81.75,1-163.66-1.59-245.38-.07v-1h248.76Z"/>
      <path class="cls-24" d="M746.61,474.79c.53,0,5.21-.59,3.49,1h-146.35v-1c47.58.66,95.29-.88,142.86,0Z"/>
      <path class="cls-7" d="M357.99,631.69c3.78,2.52,8.78,3.07,14.32,2.06,27.78,1.56,55.49,3.78,83.21,6.05,3.98.33,23.31,3.01,25.13,6.71,1.14,2.31,1.44,10.46,1.35,13.44-1.09,34.14-35.53,42.83-64.49,42.06-18.82-.42-37.62-.62-56.42-.59l-4.1-1.78c-6.35-11.97-7.45-37.18-7.98-51.48-.1-2.55-.54-11.95-.01-13.48,1.02-2.94,6.59-2.85,8.99-3Z"/>
      <path class="cls-25" d="M360.99,631.69c3.28.75,6.76,1.2,9.99,0,41.78-.51,83.63.42,125.42-.05,9.15-.29,7.68,9.03,7.49,15.58-.34,11.31-2.36,41.92-6.86,51.1-3.97,8.12-14.77,14.52-23.32,16.65-20.49,5.09-50.01,2.68-71.23,1.62-17.88-.89-35.69,1.54-45.5-16.95,28.61-1.91,60.9,3.43,88.98-2.43,17.68-3.69,32.48-15.95,33.94-35,.38-4.95-.35-9.99-.91-14.85-1.08-1.63-13.91-4.29-16.62-4.66-32.96-4.58-67.79-4.5-100.94-7.95-2.26-.24-3.46-.37-3.44-3.06.99-.06,2,.03,3,0Z"/>
      <path class="cls-3" d="M464.89,563.73l-7.04,47.92-61.75-.08-9.12-48.83c25.48,6.39,52.21,5.69,77.91,1Z"/>
      <path class="cls-17" d="M483.87,487.78l1.22.71c.42-3.64,4.2-3.34,6.71-5.27,20.37-15.64,37.55-33.52,52.84-54.07,2.01-2.69,3.64-7.11,5.72-9.26,1.69-1.74,2.76-1.8,2.44.94-8.33,26.34-17.14,50.01-31.16,74.26-4.49,7.77-15.19,26.22-21.24,31.72-7.8,7.08-23.85,10.09-33.5,13.94,6.44-17.37,12.51-34.96,16.97-52.97Z"/>
      <path class="cls-30" d="M477.88,611.7l8.53-53.93c16.76-7.49,33.39-15.39,48.41-26.02l-28.97,80.95c-1.34.57-2.98-1-3.49-1h-24.48Z"/>
      <path class="cls-19" d="M459.89,506.77c-1.78,5.74-11.88,34.18-15.28,36.67-4.52,3.32-29.58.29-36.53,1.17-4.14-10.9-8.68-21.68-12.12-32.84,4.61-2.72,10.2-.03,14.53.04,10.36.16,24.33-1.63,34.62-3.33,4.24-.7,8.02-2.54,12.03-3.07,2.02-.27,1.4-.94,2.75,1.37Z"/>
      <path class="cls-7" d="M370.98,631.69c-2.26,2.37-7.4,1.59-9.99,0,3.31-.11,6.67.04,9.99,0Z"/>
    </g>
  </g>
</svg>