<?xml version="1.0" encoding="UTF-8"?>
<svg xmlns="http://www.w3.org/2000/svg" viewBox="0 0 72.5 16.4">
  <g id="Layer_1" data-name="Layer 1">
    <path d="M4.74,16.4c-1.21,0-2.13-.1-3.17-.92-1.01-.82-1.57-1.99-1.57-3.31,0-2.24,1.77-4.25,4.45-4.25.72,0,1.36.13,1.98.35v1.99c-.52-.32-1.03-.55-1.69-.55-1.28,0-2.3.98-2.3,2.46s1.12,2.45,2.35,2.45c.9,0,1.4-.3,1.8-.55v1.92c-.67.29-1.55.42-1.85.42Z"/>
    <path d="M13.77,16.13c-.42,0-.86.04-1.31.07-.47-1.18-1.06-2.25-1.61-3.29h-.91v1.51c0,.59.04,1.21.08,1.78-.37-.04-.8-.07-1.26-.07s-.86.04-1.2.07c.06-.97.08-1.85.08-2.61,0-2.03.02-3.84-.08-5.42h4.29c.68,0,1.26.02,1.68.14.97.28,1.59,1.08,1.59,2.04,0,1.26-.61,2.09-1.85,2.34.56,1.13,1.28,2.29,2.06,3.51-.55-.04-1.1-.07-1.58-.07ZM11.59,9.87h-1.64v1.35h1.63c.58,0,1.14,0,1.14-.72,0-.61-.52-.64-1.13-.64Z"/>
    <path d="M20.72,16.17h-4.56c.16-1.62.12-2.99.12-4.22,0-2.04-.08-3.35-.13-3.78h4.56c.66,0,1.28-.01,1.81-.04v1.82c-.83-.02-1.46-.05-1.82-.05h-2.12v1.22h2.13c.48,0,1.04,0,1.6-.04v1.81c-.49-.02-1.08-.04-1.6-.04h-2.13v1.56h2.15c.67,0,1.34-.04,1.98-.08v1.86c-.62-.02-1.3-.04-1.98-.04Z"/>
    <path d="M26.63,16.4c-1.3,0-2.19-.34-3.02-.65v-1.66c.79.32,1.61.56,2.59.56,1.24,0,1.85-.24,1.85-.82,0-.4-.34-.59-.92-.67-1.27-.18-2.24-.26-2.94-.82-.56-.44-.77-.97-.77-1.76s.42-1.51,1.14-2c.72-.49,1.64-.66,2.82-.66.74,0,1.55.17,2.4.46v1.83c-.7-.42-1.63-.65-2.23-.65-1.12,0-1.79.1-1.79.7,0,.28.14.5.37.56.53.13,1.1.24,1.68.3,1.68.19,2.53,1.01,2.53,2.33,0,1.85-1.55,2.94-3.71,2.94Z"/>
    <path d="M35.83,16.4c-1.21,0-2.13-.1-3.17-.92-1.01-.82-1.57-1.99-1.57-3.31,0-2.24,1.77-4.25,4.45-4.25.72,0,1.36.13,1.98.35v1.99c-.52-.32-1.03-.55-1.69-.55-1.28,0-2.3.98-2.3,2.46s1.12,2.45,2.35,2.45c.9,0,1.4-.3,1.8-.55v1.92c-.67.29-1.55.42-1.85.42Z"/>
    <path d="M43.23,16.17h-4.56c.16-1.62.12-2.99.12-4.22,0-2.04-.08-3.35-.13-3.78h4.56c.66,0,1.28-.01,1.81-.04v1.82c-.83-.02-1.46-.05-1.82-.05h-2.12v1.22h2.13c.48,0,1.04,0,1.6-.04v1.81c-.49-.02-1.08-.04-1.6-.04h-2.13v1.56h2.15c.67,0,1.34-.04,1.98-.08v1.86c-.62-.02-1.3-.04-1.98-.04Z"/>
    <path d="M52.98,16.13c-.4,0-.85.01-1.39.07-.49-.94-1.5-2.75-2.94-5.43v.61c0,1.67.06,3.43.16,4.82-.43-.05-.85-.07-1.27-.07-.37,0-.78.04-1.15.07.04-.6.08-1.49.08-2.7,0-2.28,0-4.08-.08-5.37.5.05,1.04.08,1.62.08.5,0,1.01-.05,1.48-.08.6,1.21,1.54,2.96,2.72,5.27,0-1.97-.08-3.87-.22-5.27.38.04.83.08,1.26.08.38,0,.79-.05,1.18-.08-.06.91-.06,1.8-.06,2.65,0,2.28.01,4.09.06,5.42-.46-.05-.95-.07-1.44-.07Z"/>
    <path d="M68.11,16.4c-2.57,0-4.4-1.83-4.4-4.23s1.82-4.25,4.39-4.25,4.4,1.86,4.4,4.25-1.81,4.23-4.39,4.23ZM68.1,9.71c-1.15,0-1.96,1.12-1.96,2.45s.83,2.46,1.97,2.46,1.97-1.1,1.97-2.46-.8-2.45-1.98-2.45Z"/>
  </g>
  <g id="Layer_2" data-name="Layer 2">
    <path d="M61.32,6.32c0,3.48,0,6.32,0,6.32s-.07-.02-.15-.05c-.21-.07-.46-.14-.68-.18-.18-.03-.23-.03-.54-.03-.69,0-1.11.08-1.74.32-1.24.48-2.08,1.22-2.25,1.98-.03.15-.03.4,0,.55.04.15.11.3.21.43.3.41.75.65,1.36.73.22.03.72.02.97-.02,1.04-.15,2.09-.65,2.73-1.29.23-.23.49-.63.64-.98.12-.29.11.12.12-4.59,0-2.33.01-4.41.02-4.63v-.4h.05c.09,0,.42.08.67.16.69.23,1.4.57,1.89.92.79.56,1.42,1.77,1.53,2.93.08.78-.09,1.38-.83,2.91-.28.58-.42.89-.42.91,0,.03.06,0,.12-.04.19-.15.57-.77.88-1.45.35-.77.61-1.51.73-2.13.03-.17,5.25,1.92,5.25,1.56,0-.41-.42-1.52-3.46-2.59-2.12-.73-2.27-1.61-2.8-2.27-.38-.47-.82-.91-1.56-1.59-1.47-1.35-1.78-1.78-2.01-2.83-.04-.17-.04-.23-.05-.58v-.39h-.68v6.32Z"/>
  </g>
</svg>